<?xml version="1.0" encoding="utf-8"?>
<!-- Generator: Adobe Illustrator 23.0.2, SVG Export Plug-In . SVG Version: 6.00 Build 0)  -->
<svg version="1.1" id="Camada_1" xmlns="http://www.w3.org/2000/svg" xmlns:xlink="http://www.w3.org/1999/xlink" x="0px" y="0px"
	 viewBox="0 0 184 34.4" style="enable-background:new 0 0 184 34.4;" xml:space="preserve">
<style type="text/css">
	.st0{fill:#565C64;}
	.st1{fill:#87878C;}
	.st2{fill:#AAAAAD;}
	.st3{fill:#63636A;}
	.st4{fill:#46464F;}
	.st5{fill:#7A7A80;}
</style>
<g>
	<path class="st0" d="M177.7,7.4c-1.3,0-2.5,0-3.8,0c-0.7,0-1.3,0.3-1.7,0.8c-0.7,0.8-1.5,1.6-2.2,2.5c-2.7,3.1-5.4,6.1-8.1,9.2
		c-0.2,0.2-0.3,0.4-0.3,0.7c0,1.7,0,3.3,0,5c0,0.2,0,0.4,0,0.6c0.1,0.6,0.5,0.9,1,0.9c1.3,0,2.5,0,3.8,0c0.2,0,0.3,0,0.2,0.2
		c0,0.9,0,1.9,0,2.8c0,0.2,0,0.2-0.2,0.2c-5.9,0-11.7,0-17.6,0c-0.2,0-0.2,0-0.2-0.2c0-1,0-1.9,0-2.9c0-0.2,0.1-0.2,0.2-0.2
		c1.2,0,2.4,0,3.6,0c0.6,0,1-0.4,1.1-1c0-0.4,0-0.7,0-1.1c0-1.4,0-2.8,0-4.3c0-0.3-0.1-0.6-0.3-0.8c-1.2-1.4-2.5-2.8-3.7-4.3
		c-2-2.3-4-4.5-6-6.8c-0.6-0.7-1.3-1.2-2.2-1.4c-0.3-0.1-0.6-0.1-0.9-0.1c-1,0-1.9,0-2.9,0c-0.2,0-0.2,0-0.2-0.2c0-1,0-1.9,0-2.9
		c0-0.2,0-0.2,0.2-0.2c5.9,0,11.8,0,17.7,0c0.2,0,0.2,0,0.2,0.2c0,1,0,1.9,0,2.9c0,0.2-0.1,0.2-0.2,0.2c-0.6,0-1.2,0-1.8,0
		c-0.3,0-0.5,0-0.7,0.3c-0.1,0.3,0,0.5,0.2,0.7c1.1,1.4,2.3,2.7,3.4,4.1c0.9,1,1.7,2.1,2.6,3.1c0.2,0.3,0.2,0.3,0.5,0
		c2-2.4,4-4.7,6-7.1c0.2-0.2,0.3-0.5,0.2-0.8c-0.1-0.3-0.4-0.4-0.7-0.4c-0.6,0-1.3,0-1.9,0c-0.2,0-0.2,0-0.2-0.2c0-0.9,0-1.9,0-2.8
		c0-0.2,0.1-0.2,0.3-0.2c4.8,0,9.5,0,14.3,0c0.1,0,0.2,0,0.3,0C177.7,5.2,177.7,6.3,177.7,7.4z"/>
	<path class="st1" d="M68,32c0.2,0,0.5,0,0.7,0C68.5,32,68.2,32,68,32C68,32,68,32,68,32z"/>
	<path class="st0" d="M28.1,28c1.1,0,2.1-0.1,3.1-0.3c1.3-0.2,2.6-0.6,3.8-1.2c1-0.5,1.6-1.5,1.5-2.6c-0.1-1.1-0.8-1.7-1.7-2.1
		c-0.8-0.3-1.7-0.5-2.6-0.6c-0.7-0.1-1.3-0.2-2-0.3c-0.5-0.1-1-0.1-1.5-0.2c-0.5-0.1-1-0.1-1.6-0.2c-0.5-0.1-1.1-0.1-1.6-0.2
		c-0.5,0-1-0.1-1.4-0.2c-0.4-0.1-0.9-0.1-1.3-0.2c-0.6-0.1-1.3-0.2-1.9-0.3c-0.8-0.1-1.5-0.2-2.3-0.4c-1.8-0.3-3.6-0.7-5.2-1.6
		c-0.6-0.3-1.2-0.8-1.7-1.2c-1.1-1-1.7-2.2-2.1-3.6c-0.5-2-0.1-3.9,1.1-5.6c0.7-0.9,1.6-1.6,2.5-2.2c2.1-1.2,4.4-1.9,6.8-2.3
		c1.3-0.2,2.5-0.4,3.8-0.4c0.2,0,0.5,0,0.7,0c0.2,0,0.3,0,0.5,0c0.2,0,0.5,0,0.7,0c0.9,0,1.8,0.1,2.7,0.2c1.3,0.2,2.6,0.4,3.8,0.8
		c1.3,0.3,2.5,0.8,3.7,1.3c0.3,0.1,0.6,0.3,0.9,0.4c0.1,0,0.2,0.1,0.3,0.1c0.5,0,0.7-0.2,0.7-0.7c0-0.3,0-0.5,0-0.8
		c0-0.1,0-0.2,0.2-0.2c1.1,0,2.2,0,3.4,0c0.2,0,0.2,0,0.2,0.2c0,2.9,0,5.8,0,8.6c0,0.1,0,0.2-0.2,0.2c-1,0-2,0-3,0
		c-0.1,0-0.2-0.1-0.2-0.2c-0.3-1.2-0.9-2.3-1.9-3.1c-0.7-0.6-1.5-1-2.3-1.4c-1-0.4-2-0.8-3-1c-0.9-0.2-1.7-0.4-2.6-0.5
		c-1.3-0.2-2.6-0.2-3.9-0.2c-1.9,0.1-3.8,0.3-5.6,1c-0.7,0.2-1.3,0.6-1.8,1.1c-0.5,0.5-0.8,1.2-0.6,1.9c0.1,0.6,0.4,1,0.9,1.3
		c0.5,0.3,1.1,0.4,1.7,0.5c0.7,0.1,1.5,0.2,2.2,0.3c0.5,0.1,1,0.1,1.5,0.1c0.5,0.1,1.1,0.1,1.6,0.2c0.5,0.1,1.1,0.1,1.6,0.2
		c0.5,0,1,0.1,1.5,0.2c0.6,0.1,1.1,0.1,1.7,0.2c0.5,0.1,1.1,0.2,1.6,0.2c0.6,0.1,1.1,0.2,1.7,0.2c1,0.2,2.1,0.3,3.1,0.6
		c1.3,0.3,2.6,0.8,3.8,1.4c0.6,0.3,1.2,0.7,1.7,1.2c0.8,0.7,1.4,1.6,1.8,2.5c0.2,0.6,0.4,1.1,0.5,1.7c0.1,0.5,0.1,1,0.1,1.4
		c0,1.6-0.5,3-1.5,4.2c-0.7,0.9-1.6,1.5-2.6,2.1c-1.1,0.6-2.3,1.1-3.5,1.5c-1.3,0.4-2.6,0.7-3.9,0.9c-0.8,0.1-1.7,0.2-2.5,0.2
		c-1.1,0.1-2.3,0.1-3.4,0c-0.8,0-1.6-0.1-2.3-0.3c-1.2-0.2-2.3-0.4-3.4-0.7c-1.3-0.3-2.6-0.7-3.8-1.2c-0.4-0.2-0.8-0.3-1.3-0.5
		c-0.5-0.2-0.7-0.1-0.9,0.4c0,0.4,0,0.8,0,1.2c0,0.1,0,0.2,0,0.3c-1.3,0-2.7,0-4,0c0,0,0,0-0.1,0c0-2,0-4,0-6c0-1.4,0-2.8,0-4.2
		c0-0.2,0-0.2,0.2-0.2c1.1,0,2.2,0,3.3,0c0.2,0,0.2,0.1,0.2,0.2c0.1,1,0.4,1.9,1,2.7c0.3,0.5,0.8,0.9,1.2,1.2
		c0.6,0.5,1.2,0.9,1.8,1.2c1.1,0.5,2.3,0.9,3.6,1.2c0.9,0.2,1.7,0.4,2.6,0.5c0.6,0.1,1.1,0.2,1.7,0.2c0.4,0,0.8,0,1.2,0.1
		C27.5,28,27.8,28,28.1,28z"/>
	<path class="st0" d="M103.4,11.9c0,0.1,0,0.2,0,0.3c0,4.2,0,8.4,0,12.7c0,0.4,0,0.9,0.1,1.3c0.1,0.6,0.4,0.9,1,1c0.7,0.1,1.3,0,2,0
		c0.7,0,1.3,0,2,0c0.2,0,0.2,0,0.2,0.2c0,0.9,0,1.9,0,2.8c0,0.2-0.1,0.2-0.3,0.2c-4,0-8,0-12,0c-0.9,0-1.8,0-2.7,0
		c-0.2,0-0.2,0-0.2-0.2c0-1,0-1.9,0-2.9c0-0.2,0.1-0.2,0.2-0.2c1.1,0,2.1,0,3.2,0c0.9,0,1.3-0.4,1.4-1.3c0-0.3,0-0.6,0-0.8
		c0-5.1,0-10.2,0-15.3c0-0.4,0-0.8-0.1-1.1c-0.2-0.7-0.7-1-1.4-1.1c-0.4-0.1-0.8,0-1.2,0c-0.7,0-1.4,0-2.1,0c-0.1,0-0.2,0-0.2-0.2
		c0-1,0-2,0-2.9c0-0.2,0.1-0.2,0.2-0.2c4.2,0,8.4,0,12.6,0c0.1,0,0.2,0,0.3,0.1c2.6,2.4,5.2,4.7,7.8,7.1c3.3,3,6.6,6,9.9,9
		c0,0,0.1,0.1,0.1,0.1c0.1-0.1,0-0.1,0-0.2c-0.1-3.7-0.1-7.3-0.2-11c0-0.2,0-0.4-0.1-0.6c-0.1-0.8-0.6-1.1-1.4-1.1
		c-0.7,0-1.4,0-2.1,0c-0.5,0-1,0-1.5,0c-0.2,0-0.2,0-0.2-0.2c0-1,0-1.9,0-2.9c0-0.2,0.1-0.2,0.2-0.2c2.9,0,5.7,0,8.6,0
		c2.1,0,4.3,0,6.4,0c0.2,0,0.2,0,0.2,0.2c0,0.9,0,1.9,0,2.8c0,0.2,0,0.2-0.2,0.2c-1.1,0-2.2,0-3.2,0c-0.2,0-0.3,0-0.5,0
		c-0.7,0.1-1,0.4-1.1,1.1c0,0.5,0.2,20.3,0.2,21.6c0,0.2-0.1,0.2-0.2,0.2c-1.6,0-3.2,0-4.8,0c-0.2,0-0.3,0-0.4-0.2
		c-6.8-6.1-13.6-12.2-20.5-18.3C103.5,12,103.5,11.9,103.4,11.9z"/>
	<path class="st2" d="M10.4,30.9c1.4,0,2.7,0,4.1,0c0,0,0,0,0,0c0,0.1-0.1,0.1-0.2,0.1c-1.3,0-2.5,0-3.8,0
		C10.5,31,10.4,31,10.4,30.9z"/>
	<path class="st3" d="M14.5,30.9C14.5,30.9,14.5,30.9,14.5,30.9c0-0.4,0-0.8,0-1.2c0-0.1,0-0.2,0-0.3C14.5,30,14.5,30.5,14.5,30.9z"
		/>
	<path class="st4" d="M28.1,28c-0.3,0.1-0.6,0.1-0.9,0C27.5,28,27.8,28,28.1,28z"/>
	<path class="st5" d="M25.9,2.5c-0.2,0-0.5,0-0.7,0C25.4,2.5,25.7,2.4,25.9,2.5z"/>
	<path class="st5" d="M24.6,2.5c-0.2,0-0.5,0-0.7,0C24.2,2.4,24.4,2.5,24.6,2.5z"/>
	<path class="st0" d="M89.1,15.6c-0.3-3-1.6-5.6-3.8-7.7c-1.6-1.5-3.4-2.7-5.5-3.6c-2.2-0.9-4.4-1.4-6.7-1.7c-2.3-0.2-4.6-0.3-6.9,0
		c-2.5,0.3-5,0.9-7.3,1.9c-1.8,0.8-3.6,1.8-5,3.1c-3.1,3-4.5,6.7-4,11c0.3,2.7,1.3,5,3.1,7c1.4,1.5,3,2.7,4.8,3.6
		c3.2,1.7,6.7,2.4,10.3,2.6c0.2,0.1,0.5,0,0.7,0c0.6,0,1.2,0,1.9,0c0.4-0.1,0.8-0.1,1.1-0.1c2.5-0.2,5-0.7,7.3-1.6
		c2.3-0.8,4.4-2,6.1-3.7C88.2,23.7,89.5,19.9,89.1,15.6z M80.4,20.4c-0.8,3-2.7,5.1-5.4,6.5c-1.7,0.9-3.6,1.3-5.5,1.2
		c-2.3,0-4.3-0.5-6.2-1.6c-2.4-1.3-4-3.3-4.7-5.9c-0.8-2.9-0.7-5.7,0.6-8.4c1.1-2.4,3-4,5.4-5c1.9-0.8,3.9-1.1,5.9-0.9
		c2.8,0.2,5.3,1.2,7.4,3.2c1.6,1.6,2.4,3.5,2.8,5.6C80.9,16.9,80.9,18.7,80.4,20.4z"/>
</g>
</svg>
