<?xml version="1.0" encoding="utf-8"?>
<!-- Generator: Adobe Illustrator 23.0.2, SVG Export Plug-In . SVG Version: 6.00 Build 0)  -->
<svg version="1.1" id="Camada_1" xmlns="http://www.w3.org/2000/svg" xmlns:xlink="http://www.w3.org/1999/xlink" x="0px" y="0px"
	 viewBox="0 0 200 95.5" style="enable-background:new 0 0 200 95.5;" xml:space="preserve">
<style type="text/css">
	.st0{fill:#555C63;}
</style>
<g id="Layer_2">
	<g id="Layer_1-2">
		<g>
			<path class="st0" d="M38.6,19.2c0.1,0.2,0.1,0.4,0.1,0.6c0,3,0,6,0,9c0,0.1,0,0.3,0,0.4c0,0.2,0.1,0.3,0.3,0.3c0.1,0,0.2,0,0.3,0
				c2.7,0,5.3,0,8,0c0.2,0,0.4,0,0.6,0c0.1,0,0.2,0.1,0.2,0.2c0.1,0.1,0.1,0.3,0.1,0.4c0,0.5,0,1,0,1.5c0,2.1,0,4.2,0,6.3
				c0,0.2,0,0.3,0,0.5c0,0.1-0.1,0.2-0.3,0.3c-0.1,0-0.2,0-0.4,0c-2.7,0-5.5,0-8.2,0c-0.2,0-0.3,0-0.4,0c-0.1,0-0.2,0.1-0.2,0.3
				c0,0.2,0,0.3,0,0.5c0,2.1,0,4.2,0,6.3c0,0.5,0,0.9,0,1.4c0,1.1,0.2,2.1,0.5,3.1c0.9,2.5,2.6,4.2,5,5.1c0.8,0.3,1.6,0.5,2.4,0.6
				c0.2,0,0.3,0,0.5,0.1c0.2,0,0.3,0.1,0.3,0.3c0,0.1,0,0.2,0,0.3c0,2.6,0,5.3,0,7.9c0,0.1,0,0.2,0,0.4c0,0.2-0.1,0.3-0.3,0.3
				s-0.3,0-0.5,0c-0.8,0-1.7-0.1-2.5-0.3c-1.4-0.2-2.8-0.7-4.1-1.3c-1-0.5-2-1-2.9-1.7c-1.1-0.8-2.1-1.7-3-2.7
				c-1.7-1.9-3-4.1-3.8-6.6c-0.4-1.2-0.6-2.5-0.8-3.8c-0.1-0.5-0.1-1.1-0.1-1.6c0-9.2,0-18.4,0-27.6c0-0.2,0-0.3,0-0.5
				C32.5,19.2,35.6,19.2,38.6,19.2z"/>
			<path class="st0" d="M14.8,19.2c0,0.5,0,1,0,1.5c0,2.6,0,5.3,0,7.9c0,0.2,0,0.4,0,0.5c0,0.2,0.1,0.3,0.3,0.3c0.4,0,0.8,0.1,1.2,0
				c0.3,0,0.5,0,0.8,0c2.2,0,4.3,0,6.5,0c0.1,0,0.2,0,0.4,0c0.3,0,0.4,0.1,0.4,0.4c0,0.1,0,0.2,0,0.2c0,2.6,0,5.3,0,7.9
				c0,0.1,0,0.2,0,0.3c0,0.2-0.1,0.3-0.4,0.3c-0.1,0-0.3,0-0.4,0c-2.7,0-5.4,0-8.2,0c-0.1,0-0.2,0-0.4,0s-0.3,0.1-0.3,0.3
				c0,0.1,0,0.2,0,0.3c0,2.7,0,5.4,0,8.1c0.1,3,1.4,5.3,3.8,7.1c1.1,0.8,2.3,1.2,3.7,1.5c0.3,0,0.5,0,0.8,0.1c0.1,0,0.2,0,0.3,0
				c0.1,0,0.2,0.1,0.2,0.2c0,0.1,0,0.3,0,0.4c0,0.4,0,0.8,0,1.2c0,2.1,0,4.3,0,6.4c0,0.2,0,0.4,0,0.5s-0.1,0.2-0.2,0.2
				s-0.2,0.1-0.3,0.1c-0.2,0-0.3,0-0.5,0c-3.2-0.2-6.2-1.1-8.9-2.9c-1-0.6-1.9-1.3-2.7-2.1c-1.4-1.4-2.6-3-3.5-4.8
				c-0.6-1.3-1.1-2.6-1.5-4c-0.1-0.6-0.2-1.2-0.4-1.8c-0.1-0.2-0.1-0.4-0.1-0.6c0-9.8,0-19.5,0-29.3c0-0.2,0-0.4,0.1-0.5
				C8.7,19.2,11.8,19.2,14.8,19.2z"/>
			<path class="st0" d="M5.7,19.2c0,0.2,0,0.4,0,0.5c0,9.7,0,19.4,0,29.1c0,0.2,0,0.5,0,0.7c0,0-0.1,0-0.2,0c0-10.1,0-20.2,0-30.3
				C5.6,19.2,5.7,19.2,5.7,19.2z"/>
			<path class="st0" d="M193.7,29.4c-32,0-64.1,0-96.1,0c-0.2,0-0.4,0-0.5,0s-0.2,0-0.2,0c-0.3,0-0.4,0.1-0.4,0.4c0,0.2,0,0.3,0,0.5
				c0,11.2,0,22.5,0,33.7c0,0.1,0,0.2,0,0.4c0,0.2,0.1,0.3,0.3,0.3c0.3,0,0.7,0,1,0c18.4,0,36.8,0,55.3,0c13.6,0,27.3,0,40.9,0
				c0.2,0,0.4,0,0.6,0c0-11.7,0-23.5,0-35.2C194.2,29.4,194,29.4,193.7,29.4z M121.8,56.9c0,0.3-0.2,0.4-0.4,0.4c-0.6,0-1.2,0-1.8,0
				c-0.2,0-0.4-0.1-0.4-0.4c0-0.1,0-0.2,0-0.4c0-3.1,0-6.1,0-9.2c0-1,0-1.9,0-2.9c0-0.1,0-0.2,0-0.3c0-0.1,0-0.2-0.1-0.2
				s-0.2,0.1-0.2,0.1c-0.5,0.6-0.9,1.3-1.4,1.9c-1.4,1.9-2.7,3.8-4.1,5.6c-0.1,0.1-0.1,0.2-0.2,0.3c-0.2,0.2-0.5,0.2-0.6,0
				c-0.1-0.1-0.2-0.2-0.2-0.3c-1.7-2.4-3.5-4.8-5.2-7.1c-0.1-0.2-0.3-0.4-0.4-0.5h-0.1c-0.1,0-0.1,0.1-0.1,0.1c0,0.2,0,0.3,0,0.5
				c0,4,0,8,0,12c0,0.1,0,0.2,0,0.3c0,0.3-0.1,0.4-0.4,0.4c-0.6,0-1.1,0-1.7,0h-0.1c-0.2,0-0.3-0.1-0.4-0.3c0-0.2,0-0.4,0-0.6
				c0-3,0-5.9,0-8.9l0,0c0-2.9,0-5.8,0-8.7c0-0.2,0-0.4,0-0.6c0-0.3,0.1-0.3,0.4-0.4h0.1c0.4-0.1,0.7,0.1,0.9,0.4
				c1.6,2.2,3.2,4.4,4.8,6.5c0.8,1.1,1.6,2.2,2.4,3.3c0.3,0.3,0.3,0.3,0.6,0c0.7-0.9,1.3-1.8,2-2.7c1.3-1.8,2.6-3.6,4-5.4
				c0.4-0.6,0.9-1.2,1.3-1.8c0.3-0.4,0.7-0.5,1.2-0.4c0.1,0,0.2,0.1,0.2,0.3c0.1,0.2,0,0.3,0,0.5c0,1.7,0,3.4,0,5.2
				c0,4,0,7.9,0,11.9c0,0.3,0,0.7,0,1C121.8,56.7,121.8,56.8,121.8,56.9z M137.3,56.8c0,0.4-0.1,0.5-0.5,0.5c-0.3,0-0.7,0-1,0
				c-3.1,0-6.3,0-9.4,0c-0.2,0-0.3,0-0.5,0s-0.3-0.1-0.3-0.4c0-0.3,0-0.5,0-0.8c0-2.9,0-5.7,0-8.6l0,0c0-3,0-6,0-8.9
				c0-0.2,0-0.3,0-0.5s0.1-0.3,0.3-0.3c0.1,0,0.2,0,0.3,0c3.2,0,6.4,0,9.6,0c0.2,0,0.4,0,0.5,0s0.2,0,0.2,0c0.3,0,0.4,0.1,0.4,0.4
				c0,0.5,0,1,0,1.4c0,0.3-0.1,0.4-0.4,0.4c-0.1,0-0.2,0-0.4,0c-2.5,0-5,0-7.4,0c-0.7,0-0.7,0-0.7,0.7c0,1.6,0,3.2,0,4.8
				c0,0.6,0,0.6,0.6,0.6c2.4,0,4.8,0,7.3,0c0.1,0,0.2,0,0.4,0s0.3,0.1,0.4,0.3c0,0.1,0,0.1,0,0.2c0,0.4,0,0.8,0,1.3
				c0,0.1,0,0.2,0,0.2c0,0.2-0.1,0.3-0.3,0.3s-0.4,0-0.5,0c-2.4,0-4.7,0-7.1,0c-0.6,0-0.6,0-0.6,0.6c0,1.8,0,3.6,0,5.4v0.1
				c0,0.4,0,0.4,0.4,0.4c1.4,0,2.8,0,4.2,0c1.3,0,2.6,0,3.9,0c0.6,0,0.7,0.1,0.7,0.7c0,0.3,0,0.7,0,1
				C137.3,56.7,137.3,56.7,137.3,56.8z M157.6,48.2c-0.1,1.4-0.4,2.7-0.9,3.9c-1,2.2-2.7,3.7-5,4.6c-0.7,0.3-1.4,0.4-2.1,0.5
				c-0.3,0-0.5,0-0.8,0c-2.3,0-4.6,0-6.9,0c-0.6,0-0.7-0.1-0.7-0.6c0-3,0-6.1,0-9.1l0,0c0-3,0-5.9,0-8.9c0-0.1,0-0.3,0-0.4
				c0-0.2,0.1-0.3,0.4-0.4c0.1,0,0.2,0,0.2,0c2.2,0,4.4,0,6.7,0c2.2,0,4.1,0.7,5.8,2c0.5,0.4,1,0.9,1.4,1.4c0.7,0.9,1.2,2,1.6,3.1
				c0.2,0.7,0.3,1.3,0.4,2C157.6,47,157.6,47.6,157.6,48.2z M167.5,56.8c0,0.3-0.1,0.4-0.4,0.4c-0.3,0-0.6,0-1,0c-2.4,0-4.8,0-7.2,0
				c-0.6,0-0.7-0.1-0.7-0.7c0-0.3,0-0.7,0-1s0.1-0.4,0.5-0.4c0.6,0,1.2,0,1.8,0c0.3,0,0.5,0,0.8,0c0.2,0,0.3-0.1,0.3-0.3
				c0-0.1,0-0.2,0-0.3c0-4.7,0-9.4,0-14.1c0-0.1,0-0.2,0-0.3c0-0.3-0.1-0.4-0.4-0.4c-0.7,0-1.3,0-2,0c-0.1,0-0.3,0-0.4,0
				c-0.2,0-0.3-0.1-0.3-0.3c0-0.3,0-0.6,0-0.9c0-0.2,0-0.3,0-0.5c0-0.3,0.1-0.3,0.4-0.4c0.1,0,0.2,0,0.2,0c2.3,0,4.5,0,6.8,0
				c0.3,0,0.5,0,0.8,0c0.1,0,0.2,0,0.3,0c0.2,0,0.3,0.1,0.3,0.3c0,0.5,0,0.9,0,1.4c0,0.2-0.1,0.3-0.4,0.3c-0.4,0-0.8,0-1.2,0
				c-0.3,0-0.7,0-1,0c-0.1,0-0.2,0-0.3,0c-0.2,0-0.2,0.1-0.2,0.3c0,0.1,0,0.2,0,0.2c0,2.4,0,4.7,0,7.1l0,0c0,2.4,0,4.8,0,7.2v0.1
				c0,0.4,0,0.4,0.4,0.4c0.8,0,1.5,0,2.3,0c0.6,0,0.7,0.1,0.7,0.6C167.5,56.2,167.6,56.5,167.5,56.8z M187.9,57.3
				c-0.1,0-0.1,0-0.2,0c-0.6,0-1.1,0-1.7,0c-0.3,0-0.5-0.1-0.6-0.4c-0.2-0.5-0.5-1-0.7-1.5c-0.4-0.8-0.7-1.6-1.1-2.3
				c-0.2-0.5-0.2-0.5-0.8-0.5c-1.4,0-2.8,0-4.2,0l0,0c-1.4,0-2.8,0-4.2,0c-0.3,0-0.5,0.1-0.6,0.4c-0.1,0.3-0.3,0.6-0.4,0.9
				c-0.3,0.7-0.7,1.4-1,2.1c-0.1,0.3-0.3,0.5-0.4,0.8c-0.1,0.1-0.1,0.2-0.2,0.4c-0.1,0.1-0.2,0.2-0.3,0.2c-0.7,0-1.3,0-2,0
				c-0.3,0-0.4-0.2-0.3-0.4c0-0.2,0.1-0.4,0.2-0.6c0.3-0.6,0.6-1.3,0.9-1.9c1.3-2.8,2.6-5.5,3.9-8.3c1-2,1.9-4.1,2.9-6.1
				c0.3-0.6,0.5-1.1,0.8-1.7c0.2-0.4,0.4-0.5,0.8-0.5c0.1,0,0.2,0,0.3,0c0.3,0,0.5,0.1,0.6,0.4c0.1,0.2,0.2,0.4,0.3,0.7
				c0.9,1.9,1.8,3.8,2.6,5.7c1.1,2.4,2.2,4.8,3.3,7.1c0.7,1.5,1.4,3.1,2.2,4.6c0.1,0.2,0.1,0.3,0.2,0.5c0.1,0.1,0.1,0.2,0.1,0.4
				C188.1,57.1,188,57.2,187.9,57.3z"/>
			<path class="st0" d="M87.5,29.8c0-0.1,0-0.2-0.1-0.3c0-0.1-0.1-0.2-0.3-0.2c-0.2,0-0.3,0-0.5,0c-6.1,0-12.1,0-18.2,0
				c-1.1,0-2.2,0.1-3.3,0.3c-1.6,0.3-3.2,0.9-4.6,1.6c-2.9,1.5-5.2,3.5-7.1,6.2c-0.7,1-1.2,2.1-1.7,3.2c-0.6,1.4-1,2.9-1.2,4.4
				c-0.1,0.9-0.2,1.9-0.1,2.8c0,0.7,0.1,1.5,0.2,2.2c0.2,1.4,0.6,2.8,1.2,4.2c1.1,2.7,2.9,5,5.1,6.9c2.6,2.2,5.6,3.5,8.9,3.9
				c0.6,0.1,1.2,0.1,1.8,0.2c0.6,0.1,1.2,0.1,1.7,0.3c3.5,1.1,6.1,4.1,6.3,8.2c0.1,1.9-0.5,3.7-1.7,5.3c-0.4,0.6-1,1.2-1.6,1.6
				c-1.5,1.2-3.2,1.9-5.2,2c-0.4,0-0.8,0-1.2,0c-0.7-0.1-1.3-0.2-2-0.4c-1.3-0.5-2.4-1.2-3.4-2.2c-1.5-1.6-2.3-3.4-2.5-5.6
				c0-0.1,0-0.2-0.1-0.4c0-0.1-0.1-0.2-0.2-0.2c-0.2,0-0.3,0-0.5,0c-2.6,0-5.1,0-7.7,0c-0.2,0-0.3,0-0.5,0.1c-0.1,0-0.2,0.1-0.2,0.2
				c-0.1,0.3,0,0.5,0,0.8c0,0.6,0.1,1.1,0.2,1.7c0.1,1.1,0.4,2.1,0.7,3.1c0.9,2.5,2.2,4.8,4.1,6.7c1.8,1.9,4,3.4,6.4,4.3
				c0.9,0.4,1.8,0.7,2.8,0.8c0.4,0.1,0.7,0.1,1.1,0.2c0.1,0,0.2,0,0.3,0.2c1.4,0,2.8,0,4.2,0c0.1-0.1,0.2-0.1,0.3-0.1
				c0.9-0.2,1.8-0.3,2.7-0.6c2.7-0.8,5-2.1,7.1-4c0.6-0.6,1.2-1.2,1.8-1.9c1.1-1.3,1.9-2.7,2.6-4.2c0.8-1.8,1.3-3.6,1.4-5.5
				c0.1-1.3,0.1-2.6-0.1-3.9c-0.2-1.8-0.7-3.5-1.5-5.2c-0.8-1.8-1.9-3.4-3.2-4.8c-0.4-0.4-0.3-0.5,0.1-0.8c1-0.9,1.9-1.9,2.7-2.9
				c1.2-1.7,2.2-3.5,2.8-5.5c0.3-1,0.5-2.1,0.6-3.2c0.1-0.6,0.1-1.2,0.1-1.9c0-0.4,0-0.8,0-1.1c0-0.9-0.2-1.8-0.3-2.7
				c-0.3-1.6-0.9-3.1-1.6-4.5C84,39,84,38.9,84,38.8s0-0.2,0.1-0.2s0.2,0,0.4,0c0.7,0,1.5,0,2.2,0c0.1,0,0.3,0,0.4,0
				c0.2,0,0.3-0.1,0.3-0.3c0-0.1,0-0.3,0-0.4c0-2.5,0-5,0-7.5C87.5,30.1,87.5,29.9,87.5,29.8z M68.5,56c-5.1,0-8.9-3.9-8.9-8.7
				c0-4.9,3.9-8.7,8.7-8.8c5.6,0.1,8.8,4.6,8.8,8.8C77.1,52,73.3,55.8,68.5,56z"/>
			<path class="st0" d="M143.7,47.5c0-2.2,0-4.5,0-6.7c0-0.6,0.1-0.6,0.5-0.6c1.3,0,2.7,0,4,0c1.1,0,2.1,0.2,3,0.7
				c1.4,0.7,2.5,1.9,3,3.4c0.3,0.8,0.5,1.6,0.6,2.5c0,0.3,0.1,0.6,0.1,0.9c-0.1,1.1-0.2,2.2-0.7,3.3c-0.6,1.3-1.4,2.3-2.6,3
				c-0.6,0.4-1.3,0.6-2.1,0.8c-0.4,0.1-0.7,0.1-1.1,0.1c-1.4,0-2.9,0-4.3,0c-0.5,0-0.5,0-0.5-0.5C143.7,52.1,143.7,49.8,143.7,47.5
				L143.7,47.5z"/>
			<path class="st0" d="M178.6,50.3c-1,0-2,0-3,0c-0.1,0-0.2,0-0.2,0c-0.5,0-0.5,0-0.3-0.5c0.8-1.7,1.5-3.4,2.3-5.1
				c0.3-0.8,0.7-1.5,1-2.3c0.1-0.1,0.1-0.4,0.3-0.4s0.2,0.2,0.3,0.4c0.8,1.9,1.7,3.7,2.5,5.6c0.2,0.6,0.5,1.1,0.7,1.6
				c0.1,0.1,0.1,0.2,0.2,0.4c0,0.1,0,0.2-0.1,0.2s-0.3,0-0.4,0C180.7,50.3,179.6,50.3,178.6,50.3z"/>
		</g>
	</g>
</g>
</svg>
