<?xml version="1.0" encoding="utf-8"?>
<!-- Generator: Adobe Illustrator 23.0.2, SVG Export Plug-In . SVG Version: 6.00 Build 0)  -->
<svg version="1.1" id="Santander" xmlns="http://www.w3.org/2000/svg" xmlns:xlink="http://www.w3.org/1999/xlink" x="0px" y="0px"
	 viewBox="0 0 431.9 79.6" style="enable-background:new 0 0 431.9 79.6;" xml:space="preserve">
<style type="text/css">
	.st0{fill:#555C63;}
</style>
<title>Santander</title>
<g>
	<path class="st0" d="M61.8,37.2c-0.2-2.6-0.8-5.3-2.3-7.6L47.6,8.7c-0.8-1.6-1.6-3.3-2-5.1l-0.5,0.8c-3,5.1-3,11.5,0,16.7l9.6,16.8
		c3,5.1,3,11.5,0,16.7l-0.5,0.8c-0.3-1.8-1-3.5-2-5.1l-8.7-15.3L37.9,25c-0.8-1.6-1.6-3.3-2-5.1L35.4,21c-3,5.1-3,11.4,0,16.7l0,0
		l9.7,16.7c3,5.1,3,11.5,0,16.7l-0.5,0.8c-0.3-1.8-1-3.5-2-5.1L30.5,45.9c-1.6-2.8-2.3-5.9-2.3-9.1C15.3,40.2,6.4,47.4,6.4,55.7
		c0,11.5,17.3,20.9,38.6,20.9s38.6-9.4,38.6-20.9C83.6,47.7,74.8,40.5,61.8,37.2z M98.3,72.8c0.2-3,0.5-4.9,1.5-7.4
		c4.1,2,9.4,2.8,13.2,2.8c6.8,0,10.6-2.1,10.6-6.4c0-4.3-2.8-6.1-9.6-9.1l-3.6-1.5c-6.9-3-11.4-6.9-11.4-14.3
		c0-8.2,5.8-13.5,17.5-13.5c4.8,0,9.1,0.7,13.2,2.1c-0.2,2.8-0.7,5.1-1.5,7.3c-3.8-1.5-8.6-2.1-12-2.1c-6.3,0-9.1,2.5-9.1,6.3
		c0,3.6,2.8,5.9,7.9,8.1l3.8,1.6c9.1,3.8,13,8.1,13,15.2c0,8.2-6.3,14-18.6,14C107.2,75.6,102.2,74.8,98.3,72.8z M170.5,38.2v36.3
		h-7.4l-0.3-4.5c-2.1,3.1-5.1,5.3-10.2,5.3c-9.6,0-16-7.1-16-19.1c0-12.7,6.9-20.1,20.3-20.1C162.1,36.4,166.4,36.9,170.5,38.2z
		 M162.6,66.2V43.5c-1.6-0.3-3.5-0.3-5.8-0.3c-8.2,0-12.2,5.1-12.2,13.2c0,7.4,3,12.7,10.1,12.7C158,68.9,160.4,67.7,162.6,66.2z
		 M211.2,50.2v24.2h-7.9V51.5c0-5.8-2-8.4-9.9-8.4c-2,0-4.1,0.2-6.3,0.5v30.8h-7.9V38.2C184.3,37,190,36,193.6,36
		C207.1,36.4,211.2,41.5,211.2,50.2z M233.5,68.7c2.3,0,4.6-0.3,6.1-1c-0.2,2.1-0.5,4.6-0.8,6.8c-2.1,0.8-4.6,1.2-6.8,1.2
		c-7.8,0-12.7-3.5-12.7-12.4V25c2.5-0.8,5.4-1.2,7.9-1.2v13.7h12.7c-0.2,2.5-0.3,4.8-0.7,6.9h-12v17.8
		C227.2,66.7,229.5,68.7,233.5,68.7z M276.2,38.2v36.3h-7.4l-0.3-4.5c-2.1,3.1-5.1,5.3-10.2,5.3c-9.6,0-16-7.1-16-19.1
		c0-12.7,6.9-20.1,20.3-20.1C267.8,36.4,271.9,36.9,276.2,38.2z M268.1,66.2V43.5c-1.6-0.3-3.5-0.3-5.8-0.3
		c-8.2,0-12.2,5.1-12.2,13.2c0,7.4,3,12.7,10.1,12.7C263.5,68.9,266.1,67.7,268.1,66.2z M316.9,50.2v24.2h-8.1V51.5
		c0-5.8-2-8.4-9.9-8.4c-2,0-4.1,0.2-6.3,0.5v30.8h-7.9V38.2c5.1-1.2,10.7-2.1,14.3-2.1C312.6,36.4,316.9,41.5,316.9,50.2z
		 M357.2,23.8v50.6h-7.4l-0.3-4.6c-2.1,3.3-5.1,5.4-10.4,5.4c-9.6,0-16-7.1-16-19.1C323,43.5,330,36,343.3,36c2.1,0,4.1,0.2,5.9,0.5
		V24.7C351.7,24,354.5,23.8,357.2,23.8z M349.3,66.2V43.8c-2.1-0.3-4.3-0.7-6.3-0.7c-7.9,0-11.5,4.9-11.5,13.2
		c0,7.4,3,12.7,10.1,12.7C344.6,68.9,347.3,67.7,349.3,66.2z M397.4,59h-25.6c1,6.4,4.8,9.6,12,9.6c4.5,0,8.7-0.8,12.7-2.8
		c-0.3,2.1-0.7,4.9-1.2,7.3c-3.6,1.6-7.4,2.3-11.7,2.3c-13.4,0-19.6-7.4-19.6-19.6c0-10.7,4.9-19.3,17.6-19.3
		c11.4,0,16.3,7.4,16.3,16.5C397.7,55.2,397.7,56.8,397.4,59z M371.9,52.4h18c0-5.9-3.1-9.6-8.6-9.6C375.3,43,372.3,46.1,371.9,52.4
		z M425.3,36.7c0,2.5-0.3,5.3-0.7,6.9c-2-0.2-3.6-0.3-5.9-0.3c-2,0-3.8,0.2-5.8,0.3v31h-8.1V38.3c3.3-1.2,9.1-2.1,13.5-2.1
		C420.7,36.4,423.5,36.4,425.3,36.7z"/>
</g>
</svg>
