<?xml version="1.0" encoding="utf-8"?>
<!-- Generator: Adobe Illustrator 23.0.2, SVG Export Plug-In . SVG Version: 6.00 Build 0)  -->
<svg version="1.1" id="Camada_1" xmlns="http://www.w3.org/2000/svg" xmlns:xlink="http://www.w3.org/1999/xlink" x="0px" y="0px"
	 viewBox="0 0 642.9 234.8" style="enable-background:new 0 0 642.9 234.8;" xml:space="preserve">
<style type="text/css">
	.st0{fill:#565C64;}
</style>
<g id="Layer_2">
	<g id="Layer_1-2">
		<path class="st0" d="M105.1,150c19.6-17.1,21.7-46.8,4.7-66.4c-8.9-10.3-21.9-16.2-35.6-16.2H11.6C5.2,67.4,0,72.6,0,79
			c0,6.4,5.2,11.6,11.6,11.6h62.6c13.2-0.1,23.9,10.6,24,23.8c0.1,13.2-10.6,23.9-23.8,24H11.6c-6.4,0-11.6,5.2-11.6,11.6
			s5.2,11.6,11.6,11.6c0,0,0,0,0,0h62.9c13,0.2,23.5,10.8,23.6,23.8v37.9c0,6.4,5.2,11.6,11.6,11.6c6.4,0,11.6-5.2,11.6-11.6v-37.9
			C121.2,171.8,115.3,158.9,105.1,150"/>
		<rect x="184.4" y="66.7" class="st0" width="2.1" height="167.6"/>
		<path class="st0" d="M253,169.7h-4v-59.5h4v15.1c6.1-9.3,14.6-14.9,24.8-15.1v4c-14.1,0.4-24.8,12.2-24.8,26"/>
		<path class="st0" d="M348.5,142.6h-53.4c1.2,13.7,11.2,23.6,24.2,23.6c6.1,0,13.7-0.9,19-5.4l2.9,2.9c-6.4,5.2-14.9,6.5-21.9,6.5
			c-7.3,0.1-14.4-2.6-19.8-7.6c-6.1-5.8-8.5-13.4-8.5-21.8c0-16.5,11.7-29.7,28.3-29.7c8.5,0,15.7,3.7,21.8,9.7v0.1
			c5,5.8,8.1,12.4,7.6,19.8 M295.1,138.8h49.4c-1.3-13.5-12.4-23.5-25.2-23.5C306.3,115.3,296.3,125.4,295.1,138.8"/>
		<path class="st0" d="M369.9,156.2v13.5h-4V65.1h4v59.1c4.4-8.8,13.4-14.3,23.2-14.2c16.5,0,29,13.7,29,30.3s-12.5,30.3-29,30.3
			C383,170.5,374.4,165.6,369.9,156.2 M370.1,140.2c0,14.3,8.6,26.2,23,26.2c14.4,0,25-11.8,25-26.2s-10.6-26.3-25-26.3
			C378.7,113.9,370.1,125.9,370.1,140.2"/>
		<path class="st0" d="M433.5,140.4c0-16.5,11.4-30.4,27.9-30.4c16.5,0,27.9,13.9,27.9,30.4c0,16.7-11.4,29.9-27.9,29.9
			C444.9,170.3,433.5,157.1,433.5,140.4 M437.5,140.4c0,14.1,9.7,25.9,23.9,25.9s23.8-11.8,23.8-25.9c0-14.3-9.7-26.4-23.8-26.4
			S437.5,126,437.5,140.4"/>
		<path class="st0" d="M500.7,140.4c0-16.5,11.4-30.4,27.9-30.4c16.5,0,27.9,13.9,27.9,30.4c0,16.7-11.4,29.9-27.9,29.9
			C512.1,170.3,500.7,157.1,500.7,140.4 M504.7,140.4c0,14.1,9.7,25.9,23.9,25.9c14.2,0,23.8-11.8,23.8-25.9
			c0-14.3-9.7-26.4-23.8-26.4C514.5,114,504.7,126,504.7,140.4"/>
		<polyline class="st0" points="582.9,111.9 582.9,169.7 578.8,169.7 578.8,111.9 570.1,111.9 570.1,109 578.8,109 578.8,92 
			582.9,92 582.9,109 599.5,109 599.5,111.9 		"/>
		<path class="st0" d="M266.6,218.2c-1.9,0.9-3.9,1.5-6,1.6c-6.5,0-11.8-5.3-11.8-11.8c0-6.5,5.3-11.8,11.8-11.8
			c2.1,0.1,4.1,0.6,6,1.6l0.3,0.2l-0.5,0.7c-1.8-0.9-3.8-1.5-5.8-1.6c-6,0-10.9,4.9-10.9,10.9c0,6,4.9,10.9,10.9,10.9
			c2-0.1,4-0.7,5.8-1.6l0.5,0.7"/>
		<path class="st0" d="M266.6,218.2l0.1,0.3c-1.9,0.9-4,1.5-6.1,1.6c-6.7,0-12.1-5.4-12.1-12.1s5.4-12.1,12.1-12.1c0,0,0,0,0,0
			c2.2,0.1,4.3,0.6,6.2,1.7l0,0l0.6,0.4l-0.7,0.9l-0.2,0.2l-0.3-0.1c-1.8-0.9-3.7-1.5-5.7-1.6c-5.9,0-10.6,4.8-10.6,10.6
			c0,5.8,4.7,10.6,10.6,10.6c2-0.1,3.9-0.7,5.7-1.6l0.2-0.1l0.7,0.9l0.3,0.4l-0.8,0.3L266.6,218.2l-0.1-0.3l0.4-0.2l0.1,0.3
			L266.6,218.2l-0.5-0.6l0.3-0.2l0.1,0.3c-1.9,0.9-3.9,1.5-6,1.6c-6.2,0-11.3-5.1-11.3-11.3c0-6.2,5.1-11.3,11.3-11.3
			c2.1,0.1,4.1,0.7,6,1.6l-0.1,0.3l-0.3-0.2l0.3-0.4l0.2-0.3l-0.2,0.3c-1.8-1-3.8-1.5-5.9-1.6c-6.3,0-11.5,5.1-11.5,11.4
			c0,6.3,5.1,11.5,11.4,11.5c0,0,0,0,0,0c2.1-0.2,4.1-0.7,5.9-1.6L266.6,218.2l-0.1-0.3L266.6,218.2"/>
		<path class="st0" d="M271,208c0-6.7,4.7-11.8,10.9-11.8c6.2,0,10.9,5.1,10.9,11.8s-4.7,11.8-10.9,11.8
			C275.7,219.8,271,214.8,271,208 M271.9,208c0,6.2,4.3,10.9,9.9,10.9s9.9-4.7,9.9-10.9c0-6.2-4.3-10.8-9.9-10.8
			S271.9,201.9,271.9,208"/>
		<path class="st0" d="M271,208h-0.3c0-6.9,4.8-12.1,11.2-12.1c6.4,0,11.3,5.3,11.3,12.1s-4.9,12.1-11.3,12.1
			c-6.4,0-11.2-5.2-11.2-12.1h0.7c0,6.6,4.5,11.4,10.5,11.4s10.6-4.8,10.6-11.4c0-6.6-4.6-11.4-10.6-11.4s-10.5,4.9-10.5,11.4H271
			 M271.9,208h0.3c0,6,4.1,10.5,9.6,10.5s9.6-4.5,9.6-10.5c0-6-4.1-10.5-9.6-10.5s-9.6,4.5-9.6,10.5h-0.7c0-6.3,4.4-11.2,10.3-11.2
			s10.3,4.8,10.3,11.2c0,6.4-4.4,11.2-10.3,11.2s-10.3-4.8-10.3-11.2H271.9z"/>
		<polyline class="st0" points="315.9,219.5 315,219.5 315,199.5 306.6,213.9 298.2,199.5 298.2,219.5 297.2,219.5 297.2,196.4 
			297.4,196.4 306.6,212.2 315.7,196.4 316,196.4 		"/>
		<polyline class="st0" points="315.9,219.5 315.9,219.9 314.7,219.9 314.7,200.7 306.6,214.5 298.5,200.8 298.5,219.9 296.9,219.9 
			296.9,196 297.6,196 306.6,211.5 315.6,196 316,196.1 316.3,196.1 316.3,219.9 315.9,219.9 315.9,219.5 315.6,219.5 315.6,196.4 
			316,196.4 315.9,196.7 315.7,196.7 315.7,196.4 316,196.5 306.6,212.8 297.1,196.5 297.4,196.4 297.4,196.7 297.2,196.7 
			297.2,196.4 297.6,196.4 297.6,219.2 297.8,219.2 297.8,198.2 306.6,213.2 315.4,198.2 315.4,219.2 315.9,219.2 315.9,219.5 
			315.6,219.5 315.9,219.5 		"/>
		<polyline class="st0" points="340.6,219.5 339.6,219.5 339.6,199.5 331.2,213.9 322.8,199.5 322.8,219.5 321.9,219.5 321.9,196.4 
			322,196.4 331.2,212.2 340.4,196.4 340.6,196.4 		"/>
		<polyline class="st0" points="340.6,219.5 340.6,219.9 339.3,219.9 339.3,200.7 331.2,214.5 323.1,200.8 323.1,219.9 321.5,219.9 
			321.5,196 322.2,196 331.2,211.5 340.2,196 340.6,196.1 340.9,196.1 340.9,219.9 340.6,219.9 340.6,219.5 340.2,219.5 
			340.2,196.4 340.6,196.4 340.5,196.7 340.3,196.7 340.4,196.4 340.7,196.5 331.2,212.8 321.7,196.5 322,196.4 322,196.7 
			321.9,196.7 321.9,196.4 322.2,196.4 322.2,219.2 322.5,219.2 322.5,198.2 331.2,213.2 340,198.2 340,219.2 340.6,219.2 
			340.6,219.5 340.2,219.5 340.6,219.5 		"/>
		<path class="st0" d="M346.5,212.1v-15.9h0.9v15.5c0,3.9,3.2,7.1,7.1,7.1s7.1-3.2,7.1-7.1v-15.5h0.9v15.5c0,4.4-3.6,8-8,8.1
			c-4.3,0.1-7.9-3.2-8-7.5C346.5,212.2,346.5,212.2,346.5,212.1"/>
		<path class="st0" d="M346.5,212.1h-0.4v-16.2h1.6v15.9c0,3.7,3,6.7,6.7,6.7c3.7,0,6.7-3,6.7-6.7c0,0,0,0,0,0v-15.9h1.6v15.9
			c0,4.6-3.7,8.4-8.3,8.4c-4.5,0.1-8.2-3.5-8.3-8c0,0,0,0,0,0h0.7c0.1,4.1,3.5,7.4,7.6,7.4c4.2,0,7.6-3.5,7.6-7.7v-15.2h-0.2v15.2
			c0,4.1-3.3,7.4-7.4,7.4s-7.4-3.3-7.4-7.4c0,0,0,0,0,0v-15.2h-0.2v15.5h-0.3"/>
		<polyline class="st0" points="368.5,197.9 368.5,219.5 367.6,219.5 367.6,196.4 368.5,196.4 382.6,217.7 382.6,196.1 383.4,196.1 
			383.4,219.5 382.7,219.5 		"/>
		<polyline class="st0" points="368.5,197.9 368.8,197.9 368.8,219.9 367.3,219.9 367.3,196.1 368.5,196 368.7,196 382.2,216.6 
			382.2,195.8 383.8,195.8 383.8,219.9 382.5,219.9 368.2,198.1 368.5,197.9 368.8,197.9 368.5,197.9 368.8,197.7 382.9,219.2 
			383.1,219.2 383.1,196.5 382.9,196.5 382.9,218.9 368.4,196.7 368,196.7 368,219.2 368.1,219.2 368.1,196.8 368.8,197.7 
			368.5,197.9 		"/>
		<rect x="389.8" y="196.4" class="st0" width="1" height="23.1"/>
		<polyline class="st0" points="389.8,196.4 389.8,196.1 391.2,196.1 391.2,219.9 389.5,219.9 389.5,196.1 389.8,196.1 389.8,196.4 
			390.2,196.4 390.2,219.2 390.5,219.2 390.5,196.8 389.8,196.8 389.8,196.4 390.2,196.4 389.8,196.4 		"/>
		<path class="st0" d="M414,218.2c-1.9,0.9-3.9,1.5-6,1.6c-6.5,0-11.8-5.3-11.8-11.8c0-6.5,5.3-11.8,11.8-11.8
			c2.1,0.1,4.1,0.6,6,1.6l0.3,0.2l-0.5,0.7c-1.8-0.9-3.8-1.5-5.8-1.6c-6,0-10.9,4.9-10.9,10.9c0,6,4.9,10.9,10.9,10.9
			c2-0.1,4-0.7,5.8-1.6l0.5,0.7"/>
		<path class="st0" d="M414,218.2l0.1,0.3c-1.9,0.9-4,1.5-6.1,1.6c-6.7,0-12.1-5.4-12.1-12.1c0-6.7,5.4-12.1,12.1-12.1c0,0,0,0,0,0
			c2.2,0.1,4.3,0.6,6.2,1.7l0,0l0.3,0.2l0.3,0.2l-0.7,1l-0.2,0.2l-0.3-0.1c-1.8-0.9-3.7-1.5-5.7-1.6c-5.9,0-10.6,4.7-10.6,10.6
			c0,5.9,4.7,10.6,10.6,10.6c0,0,0,0,0,0c2-0.1,3.9-0.7,5.7-1.6l0.2-0.1l0.7,0.9l0.3,0.4l-0.8,0.3l0,0V218.2l-0.1-0.3l0.4-0.2
			l0.1,0.3L414,218.2l-0.5-0.6l0.3-0.2l0.1,0.3c-1.9,0.9-3.9,1.5-6,1.6c-6.2,0-11.3-5.1-11.3-11.3c0-6.2,5.1-11.3,11.3-11.3
			c2.1,0.1,4.1,0.7,6,1.6l-0.1,0.3l-0.3-0.2l0.3-0.4l0.2-0.3l-0.2,0.3c-1.8-1-3.8-1.5-5.9-1.6c-6.3,0-11.5,5.1-11.5,11.4
			c0,6.3,5.1,11.5,11.4,11.5c0,0,0,0,0,0c2.1-0.2,4.1-0.7,5.9-1.6L414,218.2l-0.1-0.3L414,218.2"/>
		<path class="st0" d="M426.5,196.4l7.7,23.1h-0.9l-1.8-5.5h-10.1l-1.8,5.5h-0.9L426.5,196.4 M426.4,198.8l-4.8,14.5h9.5
			L426.4,198.8z"/>
		<path class="st0" d="M426.5,196.4l0.3-0.1l7.8,23.6h-1.7l-1.8-5.5h-9.7l-1.7,5.3l-0.1,0.2h-1.5l7.9-23.8h0.7l0.1,0.2L426.5,196.4
			l0,0.3h-0.2v-0.3l0.3,0.1l-7.5,22.7h0.2l1.7-5.3l0.1-0.2h10.7l1.8,5.5h0.2l-7.5-22.7L426.5,196.4L426.5,196.4 M426.4,198.8
			l0.3,0.1l-4.6,14.1h8.5l-4.6-14.1L426.4,198.8l0.3,0.1L426.4,198.8l0.3-0.1l4.9,15h-10.5l5.3-16l0.3,1L426.4,198.8z"/>
		<polyline class="st0" points="446.9,197.1 446.9,219.5 446,219.5 446,197.1 438.7,197.1 438.7,196.4 454.1,196.4 454.1,197.1 		
			"/>
		<polyline class="st0" points="446.9,197.1 447.2,197.1 447.2,219.9 445.6,219.9 445.6,197.5 438.4,197.5 438.4,196.1 454.5,196.1 
			454.5,197.5 446.9,197.5 446.9,197.1 447.2,197.1 446.9,197.1 446.9,196.8 453.8,196.8 453.8,196.8 439.1,196.8 439.1,196.8 
			446.3,196.8 446.3,219.2 446.5,219.2 446.5,196.8 446.9,196.8 446.9,197.1 		"/>
		<rect x="459.4" y="196.4" class="st0" width="1" height="23.1"/>
		<polyline class="st0" points="459.4,196.4 459.4,196.1 460.7,196.1 460.7,219.9 459.1,219.9 459.1,196.1 459.4,196.1 459.4,196.4 
			459.8,196.4 459.8,219.2 460,219.2 460,196.8 459.4,196.8 459.4,196.4 459.8,196.4 459.4,196.4 		"/>
		<path class="st0" d="M466.3,208c0-6.7,4.7-11.8,10.9-11.8s10.9,5.1,10.9,11.8s-4.7,11.8-10.9,11.8S466.3,214.8,466.3,208
			 M467.2,208c0,6.2,4.3,10.9,9.9,10.9s9.9-4.7,9.9-10.9c0-6.2-4.3-10.8-9.9-10.8S467.2,201.9,467.2,208"/>
		<path class="st0" d="M466.3,208H466c0-6.9,4.8-12.1,11.2-12.1s11.3,5.3,11.3,12.1s-4.9,12.1-11.3,12.1S466,214.9,466,208h0.7
			c0,6.6,4.5,11.4,10.5,11.4s10.6-4.8,10.6-11.4c0-6.6-4.6-11.4-10.6-11.4s-10.5,4.9-10.5,11.4H466.3 M467.2,208h0.3
			c0,6,4.1,10.5,9.6,10.5s9.6-4.5,9.6-10.5c0-6-4.1-10.5-9.6-10.5s-9.6,4.5-9.6,10.5h-0.7c0-6.3,4.4-11.2,10.3-11.2
			s10.3,4.8,10.3,11.2c0,6.4-4.4,11.2-10.3,11.2s-10.3-4.8-10.3-11.2H467.2z"/>
		<polyline class="st0" points="493.6,197.9 493.6,219.5 492.8,219.5 492.8,196.4 493.7,196.4 507.7,217.7 507.7,196.1 508.6,196.1 
			508.6,219.5 507.9,219.5 		"/>
		<polyline class="st0" points="493.6,197.9 494,197.9 494,219.9 492.4,219.9 492.4,196.1 493.7,196 493.9,196 507.4,216.6 
			507.4,195.8 508.9,195.8 508.9,219.9 507.7,219.9 493.3,198.1 493.6,197.9 494,197.9 493.6,197.9 493.9,197.7 508,219.2 
			508.2,219.2 508.2,196.5 508.1,196.5 508.1,218.9 493.5,196.7 493.1,196.7 493.1,219.2 493.3,219.2 493.3,196.8 493.9,197.7 
			493.6,197.9 		"/>
		<path class="st0" d="M528.7,213.1c0,4.3-3.3,6.7-7.2,6.7c-2.8,0.1-5.5-1.1-7.2-3.3l0.8-0.5c1.5,1.9,3.8,2.9,6.2,2.9
			c3.4,0,6.4-1.9,6.4-5.6c0-7.3-13.8-2.9-13.8-11c0-4.2,3.3-6.1,7.2-6.1c2.8-0.1,5.5,1.3,7.1,3.6l-0.8,0.5c-1.4-2-3.7-3.2-6.2-3.1
			c-3.4,0-6.4,1.3-6.5,5C514.7,209.4,528.7,205,528.7,213.1"/>
		<path class="st0" d="M528.7,213.1h0.3c0,4.5-3.6,7-7.6,7c-2.9,0.1-5.6-1.2-7.4-3.4l-0.2-0.3l1.1-0.7l0.3-0.2l0.2,0.3
			c1.5,1.8,3.7,2.8,6,2.7c3.3,0,6.1-1.8,6.1-5.3c0.1-1.4-0.7-2.7-2-3.3c-1.8-1.1-4.8-1.4-7.2-2.2c-2.4-0.8-4.6-2.2-4.6-5.4
			c-0.1-1.9,0.8-3.7,2.3-4.9c1.6-1.1,3.4-1.6,5.3-1.5c2.9-0.1,5.7,1.3,7.4,3.7l0.2,0.3l-1.1,0.7l-0.3,0.2l-0.2-0.3
			c-1.3-1.9-3.5-3.1-5.9-3c-3.3,0-6.1,1.2-6.1,4.7l0,0c-0.1,1.4,0.7,2.7,2,3.3c1.8,1.1,4.8,1.4,7.2,2.2c2.4,0.8,4.6,2.2,4.6,5.4
			h-0.7c0-3.8-3.2-4.6-6.7-5.5c-1.7-0.3-3.3-0.8-4.9-1.6c-1.5-0.7-2.4-2.2-2.3-3.9l0,0c0-4,3.4-5.4,6.8-5.4c2.6-0.1,5,1.2,6.5,3.3
			l-0.3,0.2l-0.2-0.3l0.8-0.5l0.2,0.3l-0.3,0.2c-1.5-2.2-4.1-3.5-6.8-3.4c-3.8,0-6.9,1.8-6.9,5.8c0,3.8,3.2,4.6,6.7,5.5
			c1.7,0.3,3.3,0.8,4.8,1.6c1.5,0.7,2.4,2.2,2.3,3.9c0,4-3.3,6-6.8,6c-2.5,0.1-4.9-1-6.5-3l0.3-0.2l0.2,0.3l-0.8,0.5l-0.2-0.3
			l0.3-0.2c1.7,2.1,4.2,3.2,6.9,3.1c3.8,0,6.9-2.3,6.9-6.3h0.3"/>
		<polyline class="st0" points="544.1,219.5 544.1,196.4 545,196.4 545,218.6 557.5,218.6 557.5,219.5 		"/>
		<polyline class="st0" points="544.1,219.5 543.8,219.5 543.8,196.1 545.4,196.1 545.4,218.2 557.8,218.2 557.8,219.9 543.8,219.9 
			543.8,219.5 544.1,219.5 544.1,219.2 557.1,219.2 557.1,218.9 544.7,218.9 544.7,196.8 544.5,196.8 544.5,219.5 544.1,219.5 
			544.1,219.2 544.1,219.5 		"/>
		<polyline class="st0" points="570.6,197.1 570.6,219.5 569.7,219.5 569.7,197.1 562.4,197.1 562.4,196.4 577.9,196.4 577.9,197.1 
					"/>
		<polyline class="st0" points="570.6,197.1 570.9,197.1 570.9,219.9 569.3,219.9 569.3,197.5 562.1,197.5 562.1,196.1 578.2,196.1 
			578.2,197.5 570.6,197.5 570.6,197.1 570.9,197.1 570.6,197.1 570.6,196.8 577.5,196.8 577.5,196.8 562.8,196.8 562.8,196.8 
			570,196.8 570,219.2 570.3,219.2 570.3,196.8 570.6,196.8 570.6,197.1 		"/>
		<path class="st0" d="M582.4,219.5v-23.1h5.8c6.4,0,11.6,5.2,11.6,11.6c0,6.4-5.2,11.6-11.6,11.6 M583.2,197.2v21.5h4.9
			c5.9,0,10.7-4.8,10.7-10.7c0-5.9-4.8-10.7-10.7-10.7h-4.9V197.2z"/>
		<path class="st0" d="M582.4,219.5h-0.3V196h6.1c6.6,0,11.9,5.3,11.9,11.9c0,6.6-5.3,11.9-11.9,11.9h-6.1v-0.3H582.4v-0.3h5.8
			c6.1-0.1,11.1-5.1,11.2-11.2c0-6.2-5-11.2-11.2-11.2c0,0,0,0,0,0h-5.4v22.8h-0.4L582.4,219.5 M583.2,197.2h0.3v21.1h4.6
			c5.7,0,10.4-4.7,10.4-10.4c0-5.7-4.7-10.4-10.4-10.4h-4.9L583.2,197.2L583.2,197.2l0-0.3h4.9c6.1,0,11.1,5,11.1,11.1
			c0,6.1-5,11.1-11.1,11.1h-5.3v-22.2h0.3v0.3L583.2,197.2z"/>
	</g>
</g>
</svg>
