<svg xmlns="http://www.w3.org/2000/svg" width="60.74mm" height="19.89mm" viewBox="0 0 172.17 56.38"><defs><style>.cls-1{fill:#565c64;fill-rule:evenodd;}</style></defs><g id="Layer_2" data-name="Layer 2"><g id="Layer_1-2" data-name="Layer 1"><path class="cls-1" d="M66.12,49.18c-6.41-4.13-15.1-4.85-29.13-1C22,51.73,17.06,54,10.52,49.46,8,47.24,7.1,43.67,7.77,38.52,9.33,30.12,13.55,22,21.05,13.08c4.18-4.66,8.06-8.66,13.19-10.27,3.92-1,3.56,2.08,3.08,2.52a3.82,3.82,0,0,0-2,.5,5.19,5.19,0,0,0-2.06,3.52c-.11,2.72,2.71,2.15,3.92.66,1.31-1.69,3.25-4.92,1.73-7.93A4.47,4.47,0,0,0,35.81,0c-4.7-.27-9.07,2-13.1,4.44A57.32,57.32,0,0,0,2.84,28.37C.54,34-1.54,42,1.58,48.55,4,53.08,9,55.49,15,55a105,105,0,0,0,12.68-2.61c3.41-.82,20.86-6.82,26.6,3.62a7.75,7.75,0,0,1,6.67-3.78,21.94,21.94,0,0,1,13.69,4.16c-1.37-2.07-5.26-5.11-8.5-7.2Z"/><path class="cls-1" d="M38.77,14.13c-3.26-2.14-9.82,2-15.08,9-4.81,6.3-6.88,13.63-4.62,17,3.36,4,9.59-1.81,12.25-4.91l.34-.36a38.35,38.35,0,0,0,4.54-6.51l1.3-2.14c.77-.14,1.69-.36,2.73-.66,0,0-4,6.71-3.57,10,.12,1,0,4.7,3.63,5.82,4.79.8,8.62-2.92,12-6.22l.9-.87-.19.77c-1.4,4.88.49,5.91,1.67,6.28,3.58,1,7.86-4.15,7.87-4.15-.11,1.64-.43,3,1.29,4.08,1.63.58,3.28-.29,4.53-1.12C72.88,37,76.51,32,79.45,27.7H77.58S73,34.34,70,35.79c0,0-.55.27-.87.05s-.23-1.07,0-1.56c0,0,11.54-20.07,11.54-20.07H75.21s-.6,1-.65,1.07-.12-.17-.18-.25c-3.37-4.66-11,2.52-16.75,10.84a54.52,54.52,0,0,1-8,9.4s-4.33,4-6.17,1.12a5.49,5.49,0,0,1-.09-4.1c2.15-6.12,5.86-11.68,10.08-15,1.19-.93,2.49-1.19,3.13-.8A1.36,1.36,0,0,1,57,18.32a3,3,0,0,0-2.41.93c-1.26,1.33-1.7,2.6-1.3,3.8,1.95,2.77,5.84-2.71,5.65-6.05a3.59,3.59,0,0,0-1.66-2.88,5.71,5.71,0,0,0-5,.05c-1.88.7-4.85,3.18-6.59,5.1-2.18,2.41-5.93,5.09-7.1,4.79.39-1,3.55-7.5.22-9.93ZM65,23.71a76.62,76.62,0,0,1,4.89-6.05c2.52-2.22,3.53-1.24,3.62-.55-2.36,4.22-5.14,9.06-7.75,13.4,0,0-.82,1.25-.82,1.25a12.16,12.16,0,0,1-4.22,4.33,1.22,1.22,0,0,1-1-.11,1.07,1.07,0,0,1-.46-1c.12-1.35,1.49-5.5,5.75-11.23ZM35.41,26.25l-.07.19S33,30.29,33,30.29c-1.42,1.91-3.21,4.3-5.43,5.45-.67.22-1.58.37-2-.22-1-1.18-.48-2.82-.07-4.14l.15-.47a39,39,0,0,1,4.89-8.68.16.16,0,0,1,.09,0s0,0,0,.05A7.87,7.87,0,0,0,35.48,26s0,0,0,0a1,1,0,0,1-.09.26Zm2.24-4.56s-1.06,2.43-1.06,2.43c-.15.13-.39.06-.66,0L35.46,24a4.2,4.2,0,0,1-2.92-2.6c-.47-2.27,1.47-4.05,2.32-4.69a2.56,2.56,0,0,1,2.83-.28,2.93,2.93,0,0,1,.63,2,10.71,10.71,0,0,1-.67,3.24Z"/><path class="cls-1" d="M106.42,29a3.21,3.21,0,0,0-3.1-1.78c-4.31.4-8.52,3.94-10.74,9a26,26,0,0,0-2.21,8.2A22.7,22.7,0,0,1,97.55,39a14.92,14.92,0,0,1,2.57-6.22c.82-1.22,2.45-3.17,4.28-2.65,1.6.54,1,5-1.09,9.25a29.68,29.68,0,0,1-6.41,8.47c-2.16,1.83-5.34,4-8.13,2.33-1.75-1-2.65-3.21-2.46-6,.84-7.95,4.46-14.72,9.64-22.44,5.35-7.17,11.23-14.52,19.17-18.44a5.36,5.36,0,0,1,4.41-.51s-7.45,4.1-11,11.67c-.9,1.93-2.16,4.52-.89,6.82a2.66,2.66,0,0,0,2.78,1.23c4.35-1,7.16-5.07,9.46-8.79,1.33-2.82,2.51-5.62,2.51-8.74,0-.38,0-.88,0-1.26,2.08-1.1,6.34.85,6.34.85,3.33,1.1,10.43,6.54,12.82,7.58,1.17-1.36,3.08-3.4,4.17-4.43l-1.57-1c-2.5-1.53-5.15-3-7.75-4.41a15.51,15.51,0,0,0-13.18-1.21l-1.84.64c-1.82-2-4.8-1.79-7-1.26-7.9,2.27-15.24,7.8-23.1,17.39C85.45,25.4,81.86,31.88,80,38.3,78.47,42.61,78,49,81.62,52.72c3.06,3.2,7.12,2.51,10,1.36,6.2-3.06,11.78-9.64,14.56-17.22.67-2.25,1.41-5.43.26-7.86ZM120.68,5.27c-.82,9.42-8.14,14.94-10,15.38-1.1.22-3-.26-1.3-4.22A26.33,26.33,0,0,1,120.61,4.27a2.31,2.31,0,0,1,.07,1Z"/><path class="cls-1" d="M164.11,6.46c-3.93,2.24-8,3.69-13,3.18-1.37,1.55-2.7,3.14-3.93,4.78,6.94,1.76,14.29-2.16,18.39-5.89A28.94,28.94,0,0,0,172.17,0a34.3,34.3,0,0,1-8.06,6.44Z"/><polygon class="cls-1" points="89.69 14.21 84.52 14.21 81.61 19.14 86.77 19.14 89.69 14.21 89.69 14.21"/><path class="cls-1" d="M151.13,49.67c-.55.38-1.33.06-1-.81a45.9,45.9,0,0,1,3.61-6.74l8.05-14.31h-5.51c-.26.47-.82,1.44-.82,1.44a7.41,7.41,0,0,0-1.34-1.55c-1.34-.86-3.32-.45-4.68.33-5.93,3.46-10.25,10.31-13.66,15.65,0,0-3.59,5.94-5.59,6.38-1.55.13-1.39-2-1.33-2.46a40.35,40.35,0,0,1,3.41-9.92,76.11,76.11,0,0,0,9.1-7.43c6.44-6.16,11.88-13.14,12.67-14.7a13.61,13.61,0,0,1-1.88.21c-5,6.91-15.1,17-18.17,18.46,1.36-3.28,10.16-18.92,17.65-26.4l1.18-1.14c1.82-1.78,3.71-3.6,5.18-3.9.16,0,.36,0,.53.36a6.79,6.79,0,0,1-1,3.58l-.83,1.7a17.87,17.87,0,0,0,1.95-.48c.89-1.68,1.89-3.57,1.52-5.82A1.68,1.68,0,0,0,158.76.71c-2.24-.42-4.67,1.23-6.63,2.57l-.08.05C142,11.22,133.47,22.59,126,38.12a5.29,5.29,0,0,1-3,.66A24.78,24.78,0,0,0,125.18,33a15.22,15.22,0,0,0,.16-1.9,4,4,0,0,0-1.54-3.51,5.34,5.34,0,0,0-4.37.15c-5.32,2.21-9.29,7.66-12.16,12.15a26.51,26.51,0,0,0-3.5,9.4c-.3,2.74.31,4.5,1.87,5.39s3.62,0,4.41-.44c5.38-2.84,9.14-8.52,12.11-13.72a18.53,18.53,0,0,0,3-.38.06.06,0,0,1,0,0c-.07.23-.7,2.12-.7,2.12-1.88,5.51-2.75,9.26-1,11.48,2.53,3.14,6.73-.11,10.15-4.39-.73,5.13,1.93,5.94,4,5.54,2.33-.63,4.92-3.12,6.13-4.39-.39,1.5-.28,4.17,1.84,4.44,1.45.27,2.54-.47,3.8-1.15,4.51-2.46,9.91-10.69,11.31-13h-1.84c-2,2.94-4.53,6.91-7.72,8.79Zm-40.51-.6a2.64,2.64,0,0,1-.39-1.42c0-3.09,3.27-8.58,5.62-11.65h0a8.6,8.6,0,0,0,4.55,4.14c-1.67,3.72-7.39,11.7-9.78,8.93ZM121.34,38.5a4.66,4.66,0,0,1-3.5-3.43c-.46-2.24,1.08-4,2.57-4.87a2.59,2.59,0,0,1,2.31-.43,2.36,2.36,0,0,1,.83,2.08,13,13,0,0,1-.13,1.55v.11a20.69,20.69,0,0,1-2.07,5Zm22.52,9.58-.54.47c-.75.68-1.53,1.4-2.47,1a1,1,0,0,1-.49-.71A12.25,12.25,0,0,1,142,43.4l.21-.46c2.44-4.06,5.27-8.85,9.42-12.17a2.33,2.33,0,0,1,2.26-.6,1.14,1.14,0,0,1,.4.77,1.21,1.21,0,0,1-.13.42c-1.16,1.88-2.27,3.85-3.34,5.74a80.24,80.24,0,0,1-7,11Z"/></g></g></svg>