<?xml version="1.0" encoding="utf-8"?>
<!-- Generator: Adobe Illustrator 23.0.2, SVG Export Plug-In . SVG Version: 6.00 Build 0)  -->
<svg version="1.1" id="Camada_1" xmlns="http://www.w3.org/2000/svg" xmlns:xlink="http://www.w3.org/1999/xlink" x="0px" y="0px"
	 viewBox="0 0 157.2 34.4" style="enable-background:new 0 0 157.2 34.4;" xml:space="preserve">
<style type="text/css">
	.st0{fill:#565C64;}
	.st1{fill:#87878C;}
	.st2{fill:#AAAAAD;}
	.st3{fill:#63636A;}
	.st4{fill:#46464F;}
	.st5{fill:#7A7A80;}
</style>
<g>
	<path class="st0" d="M97.9,25.3c1,0,2.1,0,3.1,0c0.4,0,0.5,0.3,0.5,0.6c0.5,1.4,1.5,2.3,2.9,2.8c1.9,0.7,3.8,0.7,5.6,0
		c0.5-0.2,1-0.5,1.4-0.9c1.5-1.5,1.1-3.4-0.8-4.2c-1.5-0.6-3-0.8-4.5-1c-1.3-0.2-2.6-0.5-3.9-0.9c-1.9-0.7-3.3-1.8-3.6-3.9
		c-0.3-2.3,0.4-4.2,2.3-5.6c2.8-1.9,5.8-2,9-1.2c2.6,0.7,4.4,2.3,5.1,5c0.2,0.8,0.2,1.2-0.8,1.1c-0.2,0-0.5,0-0.7,0
		c-1.1,0.1-1.8-0.1-2.4-1.3c-1.1-2.1-3.3-2.2-5.4-2c-1.1,0.1-2.1,0.5-2.9,1.2c-1.2,1.2-1,2.7,0.6,3.3c1.7,0.7,3.5,0.8,5.3,1.2
		c1,0.2,2,0.4,3,0.7c2,0.7,3.5,1.8,3.8,4c0.4,2.5-0.2,4.6-2.2,6.2c-2,1.6-4.4,2-6.8,1.9c-2.7-0.1-5.1-0.9-6.9-3
		C98.7,28.3,98.1,27,97.9,25.3z"/>
	<path class="st0" d="M32.5,24.8c0,2.1,0,4.2,0,6.4c0,0.6-0.2,0.8-0.8,0.8c-2.6,0-2.6,0-2.6-2.6c0-3.5,0-6.9,0-10.4
		c0-2.3-1.3-4.1-3.3-4.9c-2.2-0.8-4.6-0.2-6,1.4c-0.9,1.1-1.2,2.3-1.2,3.7c0,3.9,0,7.8,0,11.7c0,0.7-0.1,1-0.9,0.9
		c-0.8-0.1-1.9,0.2-2.4-0.2c-0.5-0.4-0.2-1.6-0.2-2.4c0-3.4,0-6.8,0-10.3c0-5.1,3.6-8.6,8.8-8.6c5,0,8.5,3.6,8.5,8.5
		C32.5,21,32.5,22.9,32.5,24.8z"/>
	<path class="st0" d="M78.7,26.7c0.6-1.7,1.2-3.3,1.8-4.8c1.2-3.3,2.4-6.6,3.6-10c0.2-0.6,0.5-0.9,1.2-0.8c0.6,0.1,1.2,0.1,1.8,0
		c0.8-0.1,1,0.1,0.7,0.9c-1.6,4.2-3.1,8.4-4.7,12.7c-0.8,2.1-1.6,4.3-2.3,6.4c-0.2,0.6-0.4,0.9-1.1,0.8c-0.9-0.1-2.1,0.4-2.8-0.2
		c-0.6-0.5-0.7-1.6-1-2.5c-2.1-5.7-4.2-11.5-6.3-17.2c-0.3-0.8-0.1-1,0.7-1c2.7,0,2.7,0,3.6,2.5c1.5,4,2.9,8,4.4,12
		C78.4,25.9,78.5,26.2,78.7,26.7z"/>
	<path class="st0" d="M36.8,20.2c0-3.4,0-6.9,0-10.3c0-1.6,0.3-3.2,1.1-4.6c1.3-2.4,4-3.7,6.6-3.3C44.8,2,45,2.2,45,2.5
		c0,0.2,0,0.3,0,0.5c0,0.6,0.2,1.3-0.1,1.9c-0.3,0.7-1.1,0.2-1.7,0.3c-1.6,0.4-2.6,1.5-2.9,3.4c-0.4,2.6-0.4,2.6,2.1,2.6
		c2.5,0,2.4,0,2.5,2.5c0,0.8-0.3,0.9-1,0.9c-0.9-0.1-1.9,0-2.8,0c-0.8-0.1-1,0.3-1,1c0,5.1,0,10.2,0,15.3c0,0.9-0.2,1.1-1.1,1.1
		c-2.4-0.1-2.4,0-2.4-2.5C36.8,26.4,36.8,23.3,36.8,20.2z"/>
	<path class="st0" d="M121.8,20.2c0.1,1.5-0.2,3.3,0.1,5.1c0.3,2.2,1.5,3.3,3.8,3.3c0.8,0,1.1,0.3,1,1.1c0,0.3,0,0.5,0,0.8
		c0,1.5,0,1.5-1.6,1.4c-3.9-0.2-6.6-2.7-6.7-6.8c-0.1-6,0-11.9-0.1-17.9c0-0.5,0.1-0.6,0.6-0.6c2.8-0.1,2.8-0.2,2.8,2.6
		c0,1.8,0,1.8,1.8,1.8c0.8,0,1.5,0,2.3,0c0.5,0,0.6,0.2,0.7,0.7c0.1,2.6,0.1,2.6-2.6,2.6c-2.2,0-2.2,0-2.2,2.2
		C121.8,17.7,121.8,18.8,121.8,20.2z"/>
	<path class="st0" d="M68.6,21.8c0,1.7,0.2,3.3-0.2,5c-0.8,3.4-4.6,6.1-8,5.6c-0.9-0.1-1.2-0.8-1.2-1.6c0-0.8,0.4-1.4,1.2-1.4
		c0.8-0.1,1.6-0.1,2.3-0.4c1.6-0.6,2.6-1.8,2.6-3.5c0.1-2.5,0.1-4.9,0-7.4c-0.1-2.1-1.5-3.5-3.6-3.9c-0.4-0.1-0.9-0.1-1.3-0.1
		c-0.9-0.1-1.3-0.7-1.3-1.6c0-0.9,0.6-1.4,1.5-1.4c5.3,0.2,8,3.6,7.9,7.6C68.6,19.7,68.6,20.7,68.6,21.8z"/>
	<path class="st0" d="M54.3,11.1c0.4-0.1,0.9-0.1,1.4,0.2c0.5,0.4,0.7,0.9,0.6,1.6c-0.2,0.7-0.6,1-1.2,1.1c-0.4,0-0.9,0.1-1.3,0.1
		c-2.2,0.3-3.7,2-3.7,4.2c0,2,0,4,0,6c0,3.2,1.4,4.7,4.7,4.9c1.2,0.1,1.8,0.9,1.5,2c-0.2,0.7-0.6,1-1.4,1.1c-4.6,0.1-8-3.1-8-7.7
		c0-1.8,0-3.6,0-5.5C46.9,14.3,49.5,11.5,54.3,11.1z"/>
	<path class="st0" d="M94.7,21.5c0,3.2,0,6.4,0,9.6c0,0.6-0.1,0.8-0.8,0.9c-2.5,0-2.5,0-2.5-2.5c0-5.8,0-11.6,0-17.4
		c0-0.7,0.1-1,0.9-1c2.4,0,2.4,0,2.4,2.4C94.7,16.2,94.7,18.8,94.7,21.5z"/>
	<path class="st0" d="M8.3,21.8c0-3,0-6.1,0-9.1c0-0.7,0.2-0.9,0.9-0.9c2.5,0,2.5,0,2.5,2.4c0,5.6,0,11.2,0,16.8
		c0,0.7-0.2,1-0.9,0.9c-2.4,0-2.4,0-2.4-2.4C8.3,26.9,8.3,24.4,8.3,21.8z"/>
	<path class="st0" d="M55.6,21.7c0-1.2,0.9-2.1,2.1-2.1c1.2,0,2.1,1,2.1,2.1c0,1.2-1,2.1-2.2,2.1C56.4,23.8,55.6,22.9,55.6,21.7z"/>
	<path class="st0" d="M148.6,19.6c-0.8-6.9-8.3-11.1-14.5-8.2c-4.8,2.2-7.2,7.6-5.9,12.9c1.5,5.8,7.2,9.3,12.6,7.7
		c1.8-0.6,3.3-1.7,4.6-3.3c0,0.4,0,0.5,0,0.7c0,2.6,0,2.6,2.6,2.5c0.1,0,0.1,0,0.2,0c0.4,0,0.5-0.2,0.5-0.5
		C148.7,27.5,149.1,23.5,148.6,19.6z M137.3,29.1c-1.9-0.3-3.4-1.3-4.5-2.8c-2.2-3.1-1.9-7.6,0.7-10.4c1.7-1.8,3.8-2.6,6.2-2
		c2.8,0.7,4.4,2.6,5.2,5.2c0.2,0.8,0.3,1.6,0.3,2C145.3,26.2,141.6,29.7,137.3,29.1z"/>
</g>
</svg>
